<svg xmlns="http://www.w3.org/2000/svg" viewBox="0 0 100 100">
  <defs>
    <linearGradient id="grad1" x1="0%" y1="0%" x2="100%" y2="100%">
      <stop offset="0%" style="stop-color:#8b5cf6;stop-opacity:1" />
      <stop offset="100%" style="stop-color:#06b6d4;stop-opacity:1" />
    </linearGradient>
  </defs>
  <rect width="100" height="100" rx="20" fill="#0f172a"/>
  <circle cx="50" cy="50" r="35" fill="url(#grad1)" opacity="0.9"/>
  <path d="M30 55 L30 45 Q30 40 35 40 L65 40 Q70 40 70 45 L70 55 Q70 60 65 60 L35 60 Q30 60 30 55" fill="#0f172a" opacity="0.3"/>
  <path d="M28 55 Q28 48 35 48 L65 48 Q72 48 72 55 L72 58 Q72 62 68 62 L32 62 Q28 62 28 58 Z" fill="#e0e7ff"/>
  <circle cx="38" cy="55" r="5" fill="#1e1b4b"/>
  <circle cx="62" cy="55" r="5" fill="#1e1b4b"/>
  <path d="M35 42 Q50 35 65 42" stroke="#a5b4fc" stroke-width="2" fill="none"/>
</svg>